<?xml version="1.0" encoding="UTF-8" standalone="no"?>
<svg width="199.319mm" height="91.3694mm"
 viewBox="0 0 565 259"
 xmlns="http://www.w3.org/2000/svg" xmlns:xlink="http://www.w3.org/1999/xlink"  version="1.2" baseProfile="tiny">
<title>Qt SVG Document</title>
<desc>MATLAB, The MathWorks, Inc. Version 25.2.0.3042426 R2025b Update 1</desc>
<defs>
</defs>
<g fill="none" stroke="black" stroke-width="1" fill-rule="evenodd" stroke-linecap="square" stroke-linejoin="bevel" >

<g fill="#ffffff" fill-opacity="1" stroke="none" transform="matrix(7.5e-05,0,0,7.5e-05,-53.7167,-3)"
font-family="MS Shell Dlg 2" font-size="8.25" font-weight="400" font-style="normal" 
>
<path vector-effect="none" fill-rule="evenodd" d="M1.17e+06,550000 L1.17e+06,3.11e+06 L3.09e+06,3.11e+06 L3.09e+06,550000 L1.17e+06,550000"/>
</g>

<g fill="#212121" fill-opacity="1" stroke="#212121" stroke-opacity="1" stroke-width="1" stroke-linecap="square" stroke-linejoin="bevel" transform="matrix(0.75,0,0,0.75,80.1584,257.45)"
font-family="Helvetica" font-size="16" font-weight="400" font-style="normal" 
>
<text fill="#212121" fill-opacity="1" stroke="none" xml:space="preserve" x="0" y="0" font-family="Helvetica" font-size="16" font-weight="400" font-style="normal" 
 >Harmonic</text>
</g>

<g fill="#212121" fill-opacity="1" stroke="#212121" stroke-opacity="1" stroke-width="0.666667" stroke-linecap="square" stroke-linejoin="round" transform="matrix(0.75,0,0,0.75,-53.7167,-3)"
font-family="Helvetica" font-size="16" font-weight="400" font-style="normal" 
>
<polyline fill="none" vector-effect="none" points="117,311 309,311 " />
<polyline fill="none" vector-effect="none" points="117,55 309,55 " />
<polyline fill="none" vector-effect="none" points="117,311 117,308.44 " />
<polyline fill="none" vector-effect="none" points="117,57.56 117,55 " />
<polyline fill="none" vector-effect="none" points="181,311 181,308.44 " />
<polyline fill="none" vector-effect="none" points="181,57.56 181,55 " />
<polyline fill="none" vector-effect="none" points="245,311 245,308.44 " />
<polyline fill="none" vector-effect="none" points="245,57.56 245,55 " />
<polyline fill="none" vector-effect="none" points="309,311 309,308.44 " />
<polyline fill="none" vector-effect="none" points="309,57.56 309,55 " />
</g>

<g fill="#212121" fill-opacity="1" stroke="#212121" stroke-opacity="1" stroke-width="1" stroke-linecap="square" stroke-linejoin="bevel" transform="matrix(0.75,0,0,0.75,31.0333,243.367)"
font-family="Helvetica" font-size="14" font-weight="400" font-style="normal" 
>
<text fill="#212121" fill-opacity="1" stroke="none" xml:space="preserve" x="0" y="0" font-family="Helvetica" font-size="14" font-weight="400" font-style="normal" 
 >0</text>
</g>

<g fill="#212121" fill-opacity="1" stroke="#212121" stroke-opacity="1" stroke-width="1" stroke-linecap="square" stroke-linejoin="bevel" transform="matrix(0.75,0,0,0.75,79.0333,243.367)"
font-family="Helvetica" font-size="14" font-weight="400" font-style="normal" 
>
<text fill="#212121" fill-opacity="1" stroke="none" xml:space="preserve" x="0" y="0" font-family="Helvetica" font-size="14" font-weight="400" font-style="normal" 
 >1</text>
</g>

<g fill="#212121" fill-opacity="1" stroke="#212121" stroke-opacity="1" stroke-width="1" stroke-linecap="square" stroke-linejoin="bevel" transform="matrix(0.75,0,0,0.75,127.033,243.367)"
font-family="Helvetica" font-size="14" font-weight="400" font-style="normal" 
>
<text fill="#212121" fill-opacity="1" stroke="none" xml:space="preserve" x="0" y="0" font-family="Helvetica" font-size="14" font-weight="400" font-style="normal" 
 >2</text>
</g>

<g fill="#212121" fill-opacity="1" stroke="#212121" stroke-opacity="1" stroke-width="1" stroke-linecap="square" stroke-linejoin="bevel" transform="matrix(0.75,0,0,0.75,175.033,243.367)"
font-family="Helvetica" font-size="14" font-weight="400" font-style="normal" 
>
<text fill="#212121" fill-opacity="1" stroke="none" xml:space="preserve" x="0" y="0" font-family="Helvetica" font-size="14" font-weight="400" font-style="normal" 
 >3</text>
</g>

<g fill="#212121" fill-opacity="1" stroke="#212121" stroke-opacity="1" stroke-width="1" stroke-linecap="square" stroke-linejoin="bevel" transform="matrix(0,-0.75,0.75,0,9.75,171)"
font-family="Helvetica" font-size="16" font-weight="400" font-style="normal" 
>
<text fill="#212121" fill-opacity="1" stroke="none" xml:space="preserve" x="0" y="0" font-family="Helvetica" font-size="16" font-weight="400" font-style="normal" 
 >Norm. Energy</text>
</g>

<g fill="#212121" fill-opacity="1" stroke="#212121" stroke-opacity="1" stroke-width="0.666667" stroke-linecap="square" stroke-linejoin="round" transform="matrix(0.75,0,0,0.75,-53.7167,-3)"
font-family="Helvetica" font-size="16" font-weight="400" font-style="normal" 
>
<polyline fill="none" vector-effect="none" points="117,311 117,55 " />
<polyline fill="none" vector-effect="none" points="309,311 309,55 " />
<polyline fill="none" vector-effect="none" points="117,311 119.56,311 " />
<polyline fill="none" vector-effect="none" points="306.44,311 309,311 " />
<polyline fill="none" vector-effect="none" points="117,274.429 119.56,274.429 " />
<polyline fill="none" vector-effect="none" points="306.44,274.429 309,274.429 " />
<polyline fill="none" vector-effect="none" points="117,237.857 119.56,237.857 " />
<polyline fill="none" vector-effect="none" points="306.44,237.857 309,237.857 " />
<polyline fill="none" vector-effect="none" points="117,201.286 119.56,201.286 " />
<polyline fill="none" vector-effect="none" points="306.44,201.286 309,201.286 " />
<polyline fill="none" vector-effect="none" points="117,164.714 119.56,164.714 " />
<polyline fill="none" vector-effect="none" points="306.44,164.714 309,164.714 " />
<polyline fill="none" vector-effect="none" points="117,128.143 119.56,128.143 " />
<polyline fill="none" vector-effect="none" points="306.44,128.143 309,128.143 " />
<polyline fill="none" vector-effect="none" points="117,91.5714 119.56,91.5714 " />
<polyline fill="none" vector-effect="none" points="306.44,91.5714 309,91.5714 " />
<polyline fill="none" vector-effect="none" points="117,55 119.56,55 " />
<polyline fill="none" vector-effect="none" points="306.44,55 309,55 " />
</g>

<g fill="#212121" fill-opacity="1" stroke="#212121" stroke-opacity="1" stroke-width="1" stroke-linecap="square" stroke-linejoin="bevel" transform="matrix(0.75,0,0,0.75,24.6667,234)"
font-family="Helvetica" font-size="14" font-weight="400" font-style="normal" 
>
<text fill="#212121" fill-opacity="1" stroke="none" xml:space="preserve" x="0" y="0" font-family="Helvetica" font-size="14" font-weight="400" font-style="normal" 
 >0</text>
</g>

<g fill="#212121" fill-opacity="1" stroke="#212121" stroke-opacity="1" stroke-width="1" stroke-linecap="square" stroke-linejoin="bevel" transform="matrix(0.75,0,0,0.75,15.6667,206.571)"
font-family="Helvetica" font-size="14" font-weight="400" font-style="normal" 
>
<text fill="#212121" fill-opacity="1" stroke="none" xml:space="preserve" x="0" y="0" font-family="Helvetica" font-size="14" font-weight="400" font-style="normal" 
 >0.1</text>
</g>

<g fill="#212121" fill-opacity="1" stroke="#212121" stroke-opacity="1" stroke-width="1" stroke-linecap="square" stroke-linejoin="bevel" transform="matrix(0.75,0,0,0.75,15.6667,179.143)"
font-family="Helvetica" font-size="14" font-weight="400" font-style="normal" 
>
<text fill="#212121" fill-opacity="1" stroke="none" xml:space="preserve" x="0" y="0" font-family="Helvetica" font-size="14" font-weight="400" font-style="normal" 
 >0.2</text>
</g>

<g fill="#212121" fill-opacity="1" stroke="#212121" stroke-opacity="1" stroke-width="1" stroke-linecap="square" stroke-linejoin="bevel" transform="matrix(0.75,0,0,0.75,15.6667,151.714)"
font-family="Helvetica" font-size="14" font-weight="400" font-style="normal" 
>
<text fill="#212121" fill-opacity="1" stroke="none" xml:space="preserve" x="0" y="0" font-family="Helvetica" font-size="14" font-weight="400" font-style="normal" 
 >0.3</text>
</g>

<g fill="#212121" fill-opacity="1" stroke="#212121" stroke-opacity="1" stroke-width="1" stroke-linecap="square" stroke-linejoin="bevel" transform="matrix(0.75,0,0,0.75,15.6667,124.286)"
font-family="Helvetica" font-size="14" font-weight="400" font-style="normal" 
>
<text fill="#212121" fill-opacity="1" stroke="none" xml:space="preserve" x="0" y="0" font-family="Helvetica" font-size="14" font-weight="400" font-style="normal" 
 >0.4</text>
</g>

<g fill="#212121" fill-opacity="1" stroke="#212121" stroke-opacity="1" stroke-width="1" stroke-linecap="square" stroke-linejoin="bevel" transform="matrix(0.75,0,0,0.75,15.6667,96.8571)"
font-family="Helvetica" font-size="14" font-weight="400" font-style="normal" 
>
<text fill="#212121" fill-opacity="1" stroke="none" xml:space="preserve" x="0" y="0" font-family="Helvetica" font-size="14" font-weight="400" font-style="normal" 
 >0.5</text>
</g>

<g fill="#212121" fill-opacity="1" stroke="#212121" stroke-opacity="1" stroke-width="1" stroke-linecap="square" stroke-linejoin="bevel" transform="matrix(0.75,0,0,0.75,15.6667,69.4286)"
font-family="Helvetica" font-size="14" font-weight="400" font-style="normal" 
>
<text fill="#212121" fill-opacity="1" stroke="none" xml:space="preserve" x="0" y="0" font-family="Helvetica" font-size="14" font-weight="400" font-style="normal" 
 >0.6</text>
</g>

<g fill="#212121" fill-opacity="1" stroke="#212121" stroke-opacity="1" stroke-width="1" stroke-linecap="square" stroke-linejoin="bevel" transform="matrix(0.75,0,0,0.75,15.6667,42)"
font-family="Helvetica" font-size="14" font-weight="400" font-style="normal" 
>
<text fill="#212121" fill-opacity="1" stroke="none" xml:space="preserve" x="0" y="0" font-family="Helvetica" font-size="14" font-weight="400" font-style="normal" 
 >0.7</text>
</g>

<g fill="#212121" fill-opacity="1" stroke="#212121" stroke-opacity="1" stroke-width="1" stroke-linecap="square" stroke-linejoin="bevel" transform="matrix(0.75,0,0,0.75,86.1585,32.9813)"
font-family="Helvetica" font-size="16" font-weight="700" font-style="normal" 
>
<text fill="#212121" fill-opacity="1" stroke="none" xml:space="preserve" x="0" y="0" font-family="Helvetica" font-size="16" font-weight="700" font-style="normal" 
 >A (h=3)</text>
</g>

<g fill="none" stroke="#1171be" stroke-opacity="1" stroke-width="2" stroke-linecap="butt" stroke-linejoin="round" transform="matrix(0.75,0,0,0.75,-53.7167,-3)"
font-family="Helvetica" font-size="16" font-weight="700" font-style="normal" 
>
<polyline fill="none" vector-effect="none" points="117,64.4918 181,207.018 245,302.566 309,304.21 " />
</g>

<g fill="#ffffff" fill-opacity="1" stroke="none" transform="matrix(7.5e-05,0,0,7.5e-05,-53.7167,-3)"
font-family="Helvetica" font-size="16" font-weight="700" font-style="normal" 
>
<path vector-effect="none" fill-rule="evenodd" d="M3.7e+06,550000 L3.7e+06,3.11e+06 L5.62e+06,3.11e+06 L5.62e+06,550000 L3.7e+06,550000"/>
</g>

<g fill="#212121" fill-opacity="1" stroke="#212121" stroke-opacity="1" stroke-width="1" stroke-linecap="square" stroke-linejoin="bevel" transform="matrix(0.75,0,0,0.75,269.908,257.45)"
font-family="Helvetica" font-size="16" font-weight="400" font-style="normal" 
>
<text fill="#212121" fill-opacity="1" stroke="none" xml:space="preserve" x="0" y="0" font-family="Helvetica" font-size="16" font-weight="400" font-style="normal" 
 >Harmonic</text>
</g>

<g fill="#212121" fill-opacity="1" stroke="#212121" stroke-opacity="1" stroke-width="0.666667" stroke-linecap="square" stroke-linejoin="round" transform="matrix(0.75,0,0,0.75,-53.7167,-3)"
font-family="Helvetica" font-size="16" font-weight="400" font-style="normal" 
>
<polyline fill="none" vector-effect="none" points="370,311 562,311 " />
<polyline fill="none" vector-effect="none" points="370,55 562,55 " />
<polyline fill="none" vector-effect="none" points="370,311 370,308.44 " />
<polyline fill="none" vector-effect="none" points="370,57.56 370,55 " />
<polyline fill="none" vector-effect="none" points="434,311 434,308.44 " />
<polyline fill="none" vector-effect="none" points="434,57.56 434,55 " />
<polyline fill="none" vector-effect="none" points="498,311 498,308.44 " />
<polyline fill="none" vector-effect="none" points="498,57.56 498,55 " />
<polyline fill="none" vector-effect="none" points="562,311 562,308.44 " />
<polyline fill="none" vector-effect="none" points="562,57.56 562,55 " />
</g>

<g fill="#212121" fill-opacity="1" stroke="#212121" stroke-opacity="1" stroke-width="1" stroke-linecap="square" stroke-linejoin="bevel" transform="matrix(0.75,0,0,0.75,220.783,243.367)"
font-family="Helvetica" font-size="14" font-weight="400" font-style="normal" 
>
<text fill="#212121" fill-opacity="1" stroke="none" xml:space="preserve" x="0" y="0" font-family="Helvetica" font-size="14" font-weight="400" font-style="normal" 
 >0</text>
</g>

<g fill="#212121" fill-opacity="1" stroke="#212121" stroke-opacity="1" stroke-width="1" stroke-linecap="square" stroke-linejoin="bevel" transform="matrix(0.75,0,0,0.75,268.783,243.367)"
font-family="Helvetica" font-size="14" font-weight="400" font-style="normal" 
>
<text fill="#212121" fill-opacity="1" stroke="none" xml:space="preserve" x="0" y="0" font-family="Helvetica" font-size="14" font-weight="400" font-style="normal" 
 >2</text>
</g>

<g fill="#212121" fill-opacity="1" stroke="#212121" stroke-opacity="1" stroke-width="1" stroke-linecap="square" stroke-linejoin="bevel" transform="matrix(0.75,0,0,0.75,316.783,243.367)"
font-family="Helvetica" font-size="14" font-weight="400" font-style="normal" 
>
<text fill="#212121" fill-opacity="1" stroke="none" xml:space="preserve" x="0" y="0" font-family="Helvetica" font-size="14" font-weight="400" font-style="normal" 
 >4</text>
</g>

<g fill="#212121" fill-opacity="1" stroke="#212121" stroke-opacity="1" stroke-width="1" stroke-linecap="square" stroke-linejoin="bevel" transform="matrix(0.75,0,0,0.75,364.783,243.367)"
font-family="Helvetica" font-size="14" font-weight="400" font-style="normal" 
>
<text fill="#212121" fill-opacity="1" stroke="none" xml:space="preserve" x="0" y="0" font-family="Helvetica" font-size="14" font-weight="400" font-style="normal" 
 >6</text>
</g>

<g fill="#212121" fill-opacity="1" stroke="#212121" stroke-opacity="1" stroke-width="1" stroke-linecap="square" stroke-linejoin="bevel" transform="matrix(0,-0.75,0.75,0,199.5,171)"
font-family="Helvetica" font-size="16" font-weight="400" font-style="normal" 
>
<text fill="#212121" fill-opacity="1" stroke="none" xml:space="preserve" x="0" y="0" font-family="Helvetica" font-size="16" font-weight="400" font-style="normal" 
 >Norm. Energy</text>
</g>

<g fill="#212121" fill-opacity="1" stroke="#212121" stroke-opacity="1" stroke-width="0.666667" stroke-linecap="square" stroke-linejoin="round" transform="matrix(0.75,0,0,0.75,-53.7167,-3)"
font-family="Helvetica" font-size="16" font-weight="400" font-style="normal" 
>
<polyline fill="none" vector-effect="none" points="370,311 370,55 " />
<polyline fill="none" vector-effect="none" points="562,311 562,55 " />
<polyline fill="none" vector-effect="none" points="370,311 372.56,311 " />
<polyline fill="none" vector-effect="none" points="559.44,311 562,311 " />
<polyline fill="none" vector-effect="none" points="370,259.8 372.56,259.8 " />
<polyline fill="none" vector-effect="none" points="559.44,259.8 562,259.8 " />
<polyline fill="none" vector-effect="none" points="370,208.6 372.56,208.6 " />
<polyline fill="none" vector-effect="none" points="559.44,208.6 562,208.6 " />
<polyline fill="none" vector-effect="none" points="370,157.4 372.56,157.4 " />
<polyline fill="none" vector-effect="none" points="559.44,157.4 562,157.4 " />
<polyline fill="none" vector-effect="none" points="370,106.2 372.56,106.2 " />
<polyline fill="none" vector-effect="none" points="559.44,106.2 562,106.2 " />
<polyline fill="none" vector-effect="none" points="370,55 372.56,55 " />
<polyline fill="none" vector-effect="none" points="559.44,55 562,55 " />
</g>

<g fill="#212121" fill-opacity="1" stroke="#212121" stroke-opacity="1" stroke-width="1" stroke-linecap="square" stroke-linejoin="bevel" transform="matrix(0.75,0,0,0.75,214.417,234)"
font-family="Helvetica" font-size="14" font-weight="400" font-style="normal" 
>
<text fill="#212121" fill-opacity="1" stroke="none" xml:space="preserve" x="0" y="0" font-family="Helvetica" font-size="14" font-weight="400" font-style="normal" 
 >0</text>
</g>

<g fill="#212121" fill-opacity="1" stroke="#212121" stroke-opacity="1" stroke-width="1" stroke-linecap="square" stroke-linejoin="bevel" transform="matrix(0.75,0,0,0.75,205.417,195.6)"
font-family="Helvetica" font-size="14" font-weight="400" font-style="normal" 
>
<text fill="#212121" fill-opacity="1" stroke="none" xml:space="preserve" x="0" y="0" font-family="Helvetica" font-size="14" font-weight="400" font-style="normal" 
 >0.2</text>
</g>

<g fill="#212121" fill-opacity="1" stroke="#212121" stroke-opacity="1" stroke-width="1" stroke-linecap="square" stroke-linejoin="bevel" transform="matrix(0.75,0,0,0.75,205.417,157.2)"
font-family="Helvetica" font-size="14" font-weight="400" font-style="normal" 
>
<text fill="#212121" fill-opacity="1" stroke="none" xml:space="preserve" x="0" y="0" font-family="Helvetica" font-size="14" font-weight="400" font-style="normal" 
 >0.4</text>
</g>

<g fill="#212121" fill-opacity="1" stroke="#212121" stroke-opacity="1" stroke-width="1" stroke-linecap="square" stroke-linejoin="bevel" transform="matrix(0.75,0,0,0.75,205.417,118.8)"
font-family="Helvetica" font-size="14" font-weight="400" font-style="normal" 
>
<text fill="#212121" fill-opacity="1" stroke="none" xml:space="preserve" x="0" y="0" font-family="Helvetica" font-size="14" font-weight="400" font-style="normal" 
 >0.6</text>
</g>

<g fill="#212121" fill-opacity="1" stroke="#212121" stroke-opacity="1" stroke-width="1" stroke-linecap="square" stroke-linejoin="bevel" transform="matrix(0.75,0,0,0.75,205.417,80.4)"
font-family="Helvetica" font-size="14" font-weight="400" font-style="normal" 
>
<text fill="#212121" fill-opacity="1" stroke="none" xml:space="preserve" x="0" y="0" font-family="Helvetica" font-size="14" font-weight="400" font-style="normal" 
 >0.8</text>
</g>

<g fill="#212121" fill-opacity="1" stroke="#212121" stroke-opacity="1" stroke-width="1" stroke-linecap="square" stroke-linejoin="bevel" transform="matrix(0.75,0,0,0.75,214.417,42)"
font-family="Helvetica" font-size="14" font-weight="400" font-style="normal" 
>
<text fill="#212121" fill-opacity="1" stroke="none" xml:space="preserve" x="0" y="0" font-family="Helvetica" font-size="14" font-weight="400" font-style="normal" 
 >1</text>
</g>

<g fill="#212121" fill-opacity="1" stroke="#212121" stroke-opacity="1" stroke-width="1" stroke-linecap="square" stroke-linejoin="bevel" transform="matrix(0.75,0,0,0.75,275.534,32.9813)"
font-family="Helvetica" font-size="16" font-weight="700" font-style="normal" 
>
<text fill="#212121" fill-opacity="1" stroke="none" xml:space="preserve" x="0" y="0" font-family="Helvetica" font-size="16" font-weight="700" font-style="normal" 
 >B (h=5)</text>
</g>

<g fill="none" stroke="#1171be" stroke-opacity="1" stroke-width="2" stroke-linecap="butt" stroke-linejoin="round" transform="matrix(0.75,0,0,0.75,-53.7167,-3)"
font-family="Helvetica" font-size="16" font-weight="700" font-style="normal" 
>
<polyline fill="none" vector-effect="none" points="370,74.2971 402,296.455 434,307.904 466,310.014 498,310.51 530,310.819 " />
</g>

<g fill="#ffffff" fill-opacity="1" stroke="none" transform="matrix(7.5e-05,0,0,7.5e-05,-53.7167,-3)"
font-family="Helvetica" font-size="16" font-weight="700" font-style="normal" 
>
<path vector-effect="none" fill-rule="evenodd" d="M6.22e+06,550000 L6.22e+06,3.11e+06 L8.15e+06,3.11e+06 L8.15e+06,550000 L6.22e+06,550000"/>
</g>

<g fill="#212121" fill-opacity="1" stroke="#212121" stroke-opacity="1" stroke-width="1" stroke-linecap="square" stroke-linejoin="bevel" transform="matrix(0.75,0,0,0.75,459.283,257.45)"
font-family="Helvetica" font-size="16" font-weight="400" font-style="normal" 
>
<text fill="#212121" fill-opacity="1" stroke="none" xml:space="preserve" x="0" y="0" font-family="Helvetica" font-size="16" font-weight="400" font-style="normal" 
 >Harmonic</text>
</g>

<g fill="#212121" fill-opacity="1" stroke="#212121" stroke-opacity="1" stroke-width="0.666667" stroke-linecap="square" stroke-linejoin="round" transform="matrix(0.75,0,0,0.75,-53.7167,-3)"
font-family="Helvetica" font-size="16" font-weight="400" font-style="normal" 
>
<polyline fill="none" vector-effect="none" points="622,311 815,311 " />
<polyline fill="none" vector-effect="none" points="622,55 815,55 " />
<polyline fill="none" vector-effect="none" points="622,311 622,308.44 " />
<polyline fill="none" vector-effect="none" points="622,57.56 622,55 " />
<polyline fill="none" vector-effect="none" points="718.5,311 718.5,308.44 " />
<polyline fill="none" vector-effect="none" points="718.5,57.56 718.5,55 " />
<polyline fill="none" vector-effect="none" points="815,311 815,308.44 " />
<polyline fill="none" vector-effect="none" points="815,57.56 815,55 " />
</g>

<g fill="#212121" fill-opacity="1" stroke="#212121" stroke-opacity="1" stroke-width="1" stroke-linecap="square" stroke-linejoin="bevel" transform="matrix(0.75,0,0,0.75,409.783,243.367)"
font-family="Helvetica" font-size="14" font-weight="400" font-style="normal" 
>
<text fill="#212121" fill-opacity="1" stroke="none" xml:space="preserve" x="0" y="0" font-family="Helvetica" font-size="14" font-weight="400" font-style="normal" 
 >0</text>
</g>

<g fill="#212121" fill-opacity="1" stroke="#212121" stroke-opacity="1" stroke-width="1" stroke-linecap="square" stroke-linejoin="bevel" transform="matrix(0.75,0,0,0.75,482.158,243.367)"
font-family="Helvetica" font-size="14" font-weight="400" font-style="normal" 
>
<text fill="#212121" fill-opacity="1" stroke="none" xml:space="preserve" x="0" y="0" font-family="Helvetica" font-size="14" font-weight="400" font-style="normal" 
 >5</text>
</g>

<g fill="#212121" fill-opacity="1" stroke="#212121" stroke-opacity="1" stroke-width="1" stroke-linecap="square" stroke-linejoin="bevel" transform="matrix(0.75,0,0,0.75,551.533,243.367)"
font-family="Helvetica" font-size="14" font-weight="400" font-style="normal" 
>
<text fill="#212121" fill-opacity="1" stroke="none" xml:space="preserve" x="0" y="0" font-family="Helvetica" font-size="14" font-weight="400" font-style="normal" 
 >10</text>
</g>

<g fill="#212121" fill-opacity="1" stroke="#212121" stroke-opacity="1" stroke-width="1" stroke-linecap="square" stroke-linejoin="bevel" transform="matrix(0,-0.75,0.75,0,388.5,171)"
font-family="Helvetica" font-size="16" font-weight="400" font-style="normal" 
>
<text fill="#212121" fill-opacity="1" stroke="none" xml:space="preserve" x="0" y="0" font-family="Helvetica" font-size="16" font-weight="400" font-style="normal" 
 >Norm. Energy</text>
</g>

<g fill="#212121" fill-opacity="1" stroke="#212121" stroke-opacity="1" stroke-width="0.666667" stroke-linecap="square" stroke-linejoin="round" transform="matrix(0.75,0,0,0.75,-53.7167,-3)"
font-family="Helvetica" font-size="16" font-weight="400" font-style="normal" 
>
<polyline fill="none" vector-effect="none" points="622,311 622,55 " />
<polyline fill="none" vector-effect="none" points="815,311 815,55 " />
<polyline fill="none" vector-effect="none" points="622,311 624.56,311 " />
<polyline fill="none" vector-effect="none" points="812.44,311 815,311 " />
<polyline fill="none" vector-effect="none" points="622,268.333 624.56,268.333 " />
<polyline fill="none" vector-effect="none" points="812.44,268.333 815,268.333 " />
<polyline fill="none" vector-effect="none" points="622,225.667 624.56,225.667 " />
<polyline fill="none" vector-effect="none" points="812.44,225.667 815,225.667 " />
<polyline fill="none" vector-effect="none" points="622,183 624.56,183 " />
<polyline fill="none" vector-effect="none" points="812.44,183 815,183 " />
<polyline fill="none" vector-effect="none" points="622,140.333 624.56,140.333 " />
<polyline fill="none" vector-effect="none" points="812.44,140.333 815,140.333 " />
<polyline fill="none" vector-effect="none" points="622,97.6667 624.56,97.6667 " />
<polyline fill="none" vector-effect="none" points="812.44,97.6667 815,97.6667 " />
<polyline fill="none" vector-effect="none" points="622,55 624.56,55 " />
<polyline fill="none" vector-effect="none" points="812.44,55 815,55 " />
</g>

<g fill="#212121" fill-opacity="1" stroke="#212121" stroke-opacity="1" stroke-width="1" stroke-linecap="square" stroke-linejoin="bevel" transform="matrix(0.75,0,0,0.75,403.417,234)"
font-family="Helvetica" font-size="14" font-weight="400" font-style="normal" 
>
<text fill="#212121" fill-opacity="1" stroke="none" xml:space="preserve" x="0" y="0" font-family="Helvetica" font-size="14" font-weight="400" font-style="normal" 
 >0</text>
</g>

<g fill="#212121" fill-opacity="1" stroke="#212121" stroke-opacity="1" stroke-width="1" stroke-linecap="square" stroke-linejoin="bevel" transform="matrix(0.75,0,0,0.75,394.417,202)"
font-family="Helvetica" font-size="14" font-weight="400" font-style="normal" 
>
<text fill="#212121" fill-opacity="1" stroke="none" xml:space="preserve" x="0" y="0" font-family="Helvetica" font-size="14" font-weight="400" font-style="normal" 
 >0.1</text>
</g>

<g fill="#212121" fill-opacity="1" stroke="#212121" stroke-opacity="1" stroke-width="1" stroke-linecap="square" stroke-linejoin="bevel" transform="matrix(0.75,0,0,0.75,394.417,170)"
font-family="Helvetica" font-size="14" font-weight="400" font-style="normal" 
>
<text fill="#212121" fill-opacity="1" stroke="none" xml:space="preserve" x="0" y="0" font-family="Helvetica" font-size="14" font-weight="400" font-style="normal" 
 >0.2</text>
</g>

<g fill="#212121" fill-opacity="1" stroke="#212121" stroke-opacity="1" stroke-width="1" stroke-linecap="square" stroke-linejoin="bevel" transform="matrix(0.75,0,0,0.75,394.417,138)"
font-family="Helvetica" font-size="14" font-weight="400" font-style="normal" 
>
<text fill="#212121" fill-opacity="1" stroke="none" xml:space="preserve" x="0" y="0" font-family="Helvetica" font-size="14" font-weight="400" font-style="normal" 
 >0.3</text>
</g>

<g fill="#212121" fill-opacity="1" stroke="#212121" stroke-opacity="1" stroke-width="1" stroke-linecap="square" stroke-linejoin="bevel" transform="matrix(0.75,0,0,0.75,394.417,106)"
font-family="Helvetica" font-size="14" font-weight="400" font-style="normal" 
>
<text fill="#212121" fill-opacity="1" stroke="none" xml:space="preserve" x="0" y="0" font-family="Helvetica" font-size="14" font-weight="400" font-style="normal" 
 >0.4</text>
</g>

<g fill="#212121" fill-opacity="1" stroke="#212121" stroke-opacity="1" stroke-width="1" stroke-linecap="square" stroke-linejoin="bevel" transform="matrix(0.75,0,0,0.75,394.417,74)"
font-family="Helvetica" font-size="14" font-weight="400" font-style="normal" 
>
<text fill="#212121" fill-opacity="1" stroke="none" xml:space="preserve" x="0" y="0" font-family="Helvetica" font-size="14" font-weight="400" font-style="normal" 
 >0.5</text>
</g>

<g fill="#212121" fill-opacity="1" stroke="#212121" stroke-opacity="1" stroke-width="1" stroke-linecap="square" stroke-linejoin="bevel" transform="matrix(0.75,0,0,0.75,394.417,42)"
font-family="Helvetica" font-size="14" font-weight="400" font-style="normal" 
>
<text fill="#212121" fill-opacity="1" stroke="none" xml:space="preserve" x="0" y="0" font-family="Helvetica" font-size="14" font-weight="400" font-style="normal" 
 >0.6</text>
</g>

<g fill="#212121" fill-opacity="1" stroke="#212121" stroke-opacity="1" stroke-width="1" stroke-linecap="square" stroke-linejoin="bevel" transform="matrix(0.75,0,0,0.75,447.659,32.9812)"
font-family="Helvetica" font-size="16" font-weight="700" font-style="normal" 
>
<text fill="#212121" fill-opacity="1" stroke="none" xml:space="preserve" x="0" y="0" font-family="Helvetica" font-size="16" font-weight="700" font-style="normal" 
 >C = A*B (h=8)</text>
</g>

<g fill="none" stroke="#1171be" stroke-opacity="1" stroke-width="2" stroke-linecap="butt" stroke-linejoin="round" transform="matrix(0.75,0,0,0.75,-53.7167,-3)"
font-family="Helvetica" font-size="16" font-weight="700" font-style="normal" 
>
<polyline fill="none" vector-effect="none" points="622,56.2212 641.3,162.585 660.6,297.639 679.9,302.874 699.2,309.955 718.5,310.171 737.8,310.901 757.1,310.991 776.4,310.995 " />
</g>

<g fill="#212121" fill-opacity="1" stroke="#212121" stroke-opacity="1" stroke-width="1" stroke-linecap="square" stroke-linejoin="bevel" transform="matrix(0.75,0,0,0.75,143.533,10.5)"
font-family="Helvetica" font-size="16" font-weight="400" font-style="normal" 
>
<text fill="#212121" fill-opacity="1" stroke="none" xml:space="preserve" x="0" y="0" font-family="Helvetica" font-size="16" font-weight="400" font-style="normal" 
 >Harmonic Growth: h</text>
</g>

<g fill="#212121" fill-opacity="1" stroke="#212121" stroke-opacity="1" stroke-width="1" stroke-linecap="square" stroke-linejoin="bevel" transform="matrix(0.75,0,0,0.75,249.283,16.5)"
font-family="Helvetica" font-size="13" font-weight="400" font-style="normal" 
>
<text fill="#212121" fill-opacity="1" stroke="none" xml:space="preserve" x="0" y="0" font-family="Helvetica" font-size="13" font-weight="400" font-style="normal" 
 >C</text>
</g>

<g fill="#212121" fill-opacity="1" stroke="#212121" stroke-opacity="1" stroke-width="1" stroke-linecap="square" stroke-linejoin="bevel" transform="matrix(0.75,0,0,0.75,256.033,10.5)"
font-family="Helvetica" font-size="16" font-weight="400" font-style="normal" 
>
<text fill="#212121" fill-opacity="1" stroke="none" xml:space="preserve" x="0" y="0" font-family="Helvetica" font-size="16" font-weight="400" font-style="normal" 
 > = h</text>
</g>

<g fill="#212121" fill-opacity="1" stroke="#212121" stroke-opacity="1" stroke-width="1" stroke-linecap="square" stroke-linejoin="bevel" transform="matrix(0.75,0,0,0.75,275.533,16.5)"
font-family="Helvetica" font-size="13" font-weight="400" font-style="normal" 
>
<text fill="#212121" fill-opacity="1" stroke="none" xml:space="preserve" x="0" y="0" font-family="Helvetica" font-size="13" font-weight="400" font-style="normal" 
 >A</text>
</g>

<g fill="#212121" fill-opacity="1" stroke="#212121" stroke-opacity="1" stroke-width="1" stroke-linecap="square" stroke-linejoin="bevel" transform="matrix(0.75,0,0,0.75,282.283,10.5)"
font-family="Helvetica" font-size="16" font-weight="400" font-style="normal" 
>
<text fill="#212121" fill-opacity="1" stroke="none" xml:space="preserve" x="0" y="0" font-family="Helvetica" font-size="16" font-weight="400" font-style="normal" 
 > + h</text>
</g>

<g fill="#212121" fill-opacity="1" stroke="#212121" stroke-opacity="1" stroke-width="1" stroke-linecap="square" stroke-linejoin="bevel" transform="matrix(0.75,0,0,0.75,301.783,16.5)"
font-family="Helvetica" font-size="13" font-weight="400" font-style="normal" 
>
<text fill="#212121" fill-opacity="1" stroke="none" xml:space="preserve" x="0" y="0" font-family="Helvetica" font-size="13" font-weight="400" font-style="normal" 
 >B</text>
</g>

<g fill="#212121" fill-opacity="1" stroke="#212121" stroke-opacity="1" stroke-width="1" stroke-linecap="square" stroke-linejoin="bevel" transform="matrix(0.75,0,0,0.75,308.533,10.5)"
font-family="Helvetica" font-size="16" font-weight="400" font-style="normal" 
>
<text fill="#212121" fill-opacity="1" stroke="none" xml:space="preserve" x="0" y="0" font-family="Helvetica" font-size="16" font-weight="400" font-style="normal" 
 > after Cauchy Product</text>
</g>
</g>
</svg>
